<svg xmlns="http://www.w3.org/2000/svg" width="16" height="17" fill="none" viewBox="0 0 16 17">
  <path fill="#000" d="M15.187.15A10.371 10.371 0 0013.469 0a10.244 10.244 0 00-5.542 1.623A10.244 10.244 0 002.386.04 10.37 10.37 0 00.668.19.792.792 0 00.01.982v9.5a.792.792 0 00.926.791 8.63 8.63 0 016.531 1.512l.095.056h.087a.72.72 0 00.554 0h.087l.095-.056a8.63 8.63 0 016.532-1.599.793.793 0 00.926-.791v-9.5a.792.792 0 00-.657-.745zM7.136 10.672A10.188 10.188 0 002.386 9.5h-.792V1.583c.264-.015.528-.015.791 0a8.597 8.597 0 014.75 1.425v7.664zm7.125-1.14h-.792a10.189 10.189 0 00-4.75 1.171V3.008a8.597 8.597 0 014.75-1.425c.264-.015.528-.015.792 0v7.949zm.926 3.285a10.359 10.359 0 00-1.718-.15 10.244 10.244 0 00-5.542 1.623 10.244 10.244 0 00-5.541-1.623c-.576.002-1.15.052-1.718.15a.79.79 0 00-.657.91.792.792 0 00.926.626 8.63 8.63 0 016.531 1.512.791.791 0 00.918 0 8.63 8.63 0 016.532-1.512.792.792 0 00.926-.626.79.79 0 00-.657-.91z"/>
</svg>
