<svg xmlns="http://www.w3.org/2000/svg" width="17" height="20" fill="none" viewBox="0 0 17 20">
  <path fill="#000" d="M16.998 6.951c-.095 1.5-.087 2.742-.08 3.839.018 2.908.048 4.802-2.167 6.847-2.129 1.964-5.593 1.965-7.721 0l-6.006-5.544a1.59 1.59 0 010-2.376c.15-.138.321-.248.503-.328l-.995-.918a1.592 1.592 0 010-2.376c.167-.155.36-.272.564-.354-.395-.636-.305-1.469.294-2.022.158-.146.339-.26.532-.34-.45-.644-.378-1.52.245-2.096.592-.547 1.495-.637 2.19-.27.09-.193.218-.37.383-.522.71-.655 1.864-.655 2.573 0 .037.034 3.21 2.952 5.243 4.825l.312-2.036c.024-.906.826-1.637 1.819-1.637.994 0 1.795.732 1.82 1.64 0 .015 0 .03-.002.046a42.591 42.591 0 00-.082 2.39c.41.355.598.859.575 1.232zm-15.116 4.35l6.006 5.544c1.655 1.528 4.35 1.528 6.005 0 1.84-1.698 1.83-3.152 1.811-6.048-.007-1.108-.015-2.361.081-3.884-.03-.48-.665-.704-1.034-.363-.206.19-.127.272-.184.475a.03.03 0 010 .003l-.487 3.178c-.07.456-.677.644-1.03.318-1.047-.967.11.1-6.038-5.572a.644.644 0 00-.84.014.53.53 0 000 .792l2.573 2.376a.53.53 0 010 .792.643.643 0 01-.857 0L4.456 5.758a.644.644 0 00-.858 0 .53.53 0 000 .792L7.03 9.718a.53.53 0 010 .791.643.643 0 01-.858 0L3.598 8.134a.644.644 0 00-.858 0 .53.53 0 000 .792L5.314 11.3a.53.53 0 010 .792.643.643 0 01-.858 0l-1.719-1.586a.644.644 0 00-.855.002.53.53 0 000 .792zm.365-6.79a.53.53 0 000 .792l.137.126a1.69 1.69 0 01.356-.463c.149-.137.318-.247.502-.328l-.137-.127a.644.644 0 00-.858 0zM1.39 7.68l.138.127a1.68 1.68 0 01.355-.464c.15-.139.321-.248.503-.328l-.138-.127a.644.644 0 00-.857 0 .53.53 0 000 .792zm1.635-5.604a.53.53 0 00-.001.79c.077.072-.447-.409 1.935 1.773a1.69 1.69 0 01.356-.464c.149-.137.318-.246.498-.325l-1.93-1.774a.644.644 0 00-.858 0zm9.533 4.826a6548.1 6548.1 0 00-6.101-5.618.644.644 0 00-.858 0 .528.528 0 00-.036.756c5.673 5.226-2.667-2.474 7.487 6.9l.304-1.988a.644.644 0 01-.796-.05zm2.735-3.61c-.03-.48-.665-.704-1.034-.364-.206.19-.127.272-.184.475L13.676 6c.357-.48.937-.742 1.54-.731.011-.697.036-1.339.076-1.978z"/>
</svg>
