<svg xmlns="http://www.w3.org/2000/svg" width="19" height="19" fill="none" viewBox="0 0 19 19">
  <path fill="#000" fill-rule="evenodd" d="M12.775 12.316l-.144-.381-.022-.06h2.433c1.48 0 2.375-1.043 2.375-2.375 0-4.706-.986-7.917-3.167-7.917H8.708a5.306 5.306 0 00-1.85.302c-.29.105-.559.234-.799.39a1.582 1.582 0 00-1.308-.692H3.167c-.874 0-1.583.709-1.583 1.583v7.125c0 .875.709 1.584 1.583 1.584h1.584c.157 0 .308-.023.451-.066.552.804 1.947 2.398 3.069 3.68a67 67 0 011.404 1.631l.237.296h.386c.48 0 .898-.036 1.378-.176 1.064-.31 1.783-1.033 1.783-2.199 0-.411-.073-.85-.208-1.338a12.42 12.42 0 00-.349-1.052l-.127-.335zm-.9 2.725c0 .357-.188.547-.641.679a2.77 2.77 0 01-.578.1c-.416-.497-1.013-1.178-1.627-1.878-1.19-1.357-2.444-2.79-2.583-3.113a1.315 1.315 0 01-.112-.538V4.75c0-.714.358-1.122 1.058-1.373.455-.163.941-.217 1.29-.21H14.25c.804 0 1.584 2.54 1.584 6.333 0 .507-.245.792-.792.792h-3.166c-.946 0-1.144.731-.947 1.523.047.186.114.391.217.67l.154.407.119.313c.136.364.232.65.306.92.1.361.15.666.15.917zm-8.707-4.75V3.168H4.75v7.125H3.168z" clip-rule="evenodd"/>
</svg>
