<svg xmlns="http://www.w3.org/2000/svg" width="20" height="20" fill="none" viewBox="0 0 20 20">
  <path fill="#000" fill-rule="evenodd" d="M13.335 13.262v1.737a3.333 3.333 0 11-6.667 0v-1.737c0-.163-.058-.34-.194-.574a5.563 5.563 0 00-.374-.544l-.058-.076c-.116-.15-.368-.478-.46-.603-.942-1.272-1.414-2.407-1.414-3.966a5.833 5.833 0 1111.667 0c0 1.593-.479 2.771-1.412 4.04-.1.135-.349.46-.497.651l-.111.146c-.19.25-.306.429-.383.583a.782.782 0 00-.097.343zm-1.63-.395a2.61 2.61 0 01.233-.685c.132-.267.3-.521.545-.848.017-.022.07-.093.141-.184.15-.195.373-.485.456-.598.741-1.007 1.088-1.863 1.088-3.053a4.167 4.167 0 10-8.333 0c0 1.149.339 1.964 1.087 2.974.08.108.306.403.429.563l.079.103c.209.277.357.49.485.71.198.34.33.673.388 1.017.52.313 1.082.466 1.7.466.62 0 1.182-.153 1.702-.465zm-.037 2.132v-.28a4.95 4.95 0 01-1.664.28 4.95 4.95 0 01-1.669-.282v.282a1.667 1.667 0 003.333 0z" clip-rule="evenodd"/>
</svg>
