<svg xmlns="http://www.w3.org/2000/svg" width="19" height="19" fill="none" viewBox="0 0 19 19">
  <path fill="#000" fill-rule="evenodd" d="M9.5 17.417a7.883 7.883 0 003.848-.996l3.353.28-.28-3.353a7.917 7.917 0 10-6.92 4.07zm3.259-2.484l.219-.132 1.99.166-.166-1.99.132-.219a6.333 6.333 0 10-2.175 2.175zM9.5 13.458a.792.792 0 100-1.583.792.792 0 000 1.583zm-.792-2.374h1.583v-.792a1.277 1.277 0 01.175-.162 2.8 2.8 0 01.304-.206 2.375 2.375 0 10-3.646-2.007H8.71a.792.792 0 111.214.67c-.256.162-.299.19-.44.303-.471.373-.774.818-.774 1.402v.792z" clip-rule="evenodd"/>
</svg>
