<svg width="23" height="23" viewBox="0 0 23 23" fill="none" xmlns="http://www.w3.org/2000/svg">
<path fill-rule="evenodd" clip-rule="evenodd" d="M2.875 21.0827H17.25C18.8378 21.0827 20.125 19.7955 20.125 18.2077V4.79102C20.125 3.2032 18.8378 1.91602 17.25 1.91602H2.875V17.2493C3.40427 17.2493 3.83333 17.6784 3.83333 18.2077C3.83333 18.737 3.40427 19.166 2.875 19.166V21.0827ZM5.74964 18.2078C5.74964 17.8717 5.69199 17.5492 5.58604 17.2494H17.2496C17.7789 17.2494 18.208 17.6785 18.208 18.2078C18.208 18.737 17.7789 19.1661 17.2496 19.1661H5.58604C5.69199 18.8664 5.74964 18.5438 5.74964 18.2078ZM17.2496 3.83259H4.7913V15.3326H17.2496C17.5857 15.3326 17.9082 15.3902 18.208 15.4962V4.79092C18.208 4.26165 17.7789 3.83259 17.2496 3.83259Z" fill="#C7C7CC"/>
</svg>