<svg width="24" height="24" viewBox="0 0 24 24" fill="none" xmlns="http://www.w3.org/2000/svg">
<path fill-rule="evenodd" clip-rule="evenodd" d="M21.2072 6.7531C22.2636 7.33997 22.2636 8.66003 21.2072 9.2469L19.8518 9.99992L21.2072 10.7529C22.2636 11.3398 22.2636 12.6599 21.2072 13.2467L19.8518 13.9998L21.2072 14.7528C22.2636 15.3397 22.2636 16.6597 21.2072 17.2466L13.1561 21.7194C12.4835 22.0931 11.5155 22.0931 10.8429 21.7194L2.79178 17.2466C1.73542 16.6597 1.73542 15.3397 2.79178 14.7528L4.14723 13.9998L2.79178 13.2467C1.73542 12.6599 1.73542 11.3398 2.79178 10.7529L4.14721 9.99992L2.79178 9.2469C1.73542 8.66003 1.73542 7.33997 2.79178 6.7531L10.8429 2.28024C11.5155 1.90659 12.4835 1.90659 13.1561 2.28024L21.2072 6.7531ZM13.1561 13.7198L17.7927 11.1439L19.3334 11.9998L17.7927 12.8558L17.7925 12.8557L15.7334 13.9997L15.7335 13.9998L12.1848 15.9713C12.1163 16.0093 11.8827 16.0093 11.8142 15.9713L8.26549 13.9998L8.26562 13.9997L6.20649 12.8557L6.20636 12.8558L4.66562 11.9998L6.20634 11.1439L10.8429 13.7198C11.5155 14.0934 12.4835 14.0934 13.1561 13.7198ZM6.20636 15.1437L4.66562 15.9997L11.8142 19.9711C11.8827 20.0092 12.1163 20.0092 12.1848 19.9711L19.3334 15.9997L17.7927 15.1437L13.1561 17.7196C12.4835 18.0932 11.5155 18.0932 10.8429 17.7196L6.20636 15.1437ZM11.8155 4.02879C11.8841 3.99072 12.1176 3.99072 12.1861 4.02879L19.3347 8.00024L12.1861 11.9717C12.1176 12.0098 11.8841 12.0098 11.8155 11.9717L4.66693 8.00024L11.8155 4.02879Z" fill="black"/>
</svg>