
<svg width="69" height="70" viewBox="0 0 69 70" fill="none" xmlns="http://www.w3.org/2000/svg">
<g clip-path="url(#clip0)">
<path d="M23.4007 61.2404C23.7557 61.2404 24.1038 61.094 24.3549 60.8398C24.6059 60.5856 24.751 60.2326 24.751 59.8732C24.751 59.5137 24.6065 59.1607 24.3549 58.9065C24.1038 58.6523 23.7557 58.506 23.4007 58.506C23.0452 58.506 22.6971 58.6523 22.446 58.9065C22.1949 59.1607 22.0504 59.5137 22.0504 59.8732C22.0504 60.2326 22.1944 60.5856 22.446 60.8398C22.6971 61.094 23.0457 61.2404 23.4007 61.2404Z" fill="#7851A2"/>
<path d="M67.848 67.2656H61.3524L58.8844 62.7988V50.6126C58.8844 47.7389 57.0626 45.2352 54.3514 44.3834L43.9927 41.1278V30.0226C43.9927 28.9908 43.6915 28.0193 43.1635 27.2033C46.103 26.1768 48.2213 23.3495 48.2213 20.0293C48.2213 16.0735 45.2153 12.8163 41.3949 12.4729V6.84448C41.3949 3.0703 38.3626 0 34.635 0C33.8892 0 33.2847 0.61203 33.2847 1.36719V12.2796C33.2784 12.2796 33.2726 12.2785 33.2663 12.2785C32.0916 12.2545 30.9808 12.6994 30.1358 13.5245C29.2908 14.3496 28.8135 15.4588 28.7924 16.6471C28.7481 19.1006 30.6838 21.1327 33.107 21.1775L33.1856 21.1791C32.9509 23.4152 32.2968 25.6252 31.2551 27.6588C30.8837 28.3841 30.687 29.2012 30.687 30.0226V41.7815L27.4342 47.7159L10.0069 58.8094C8.34914 59.8647 7.3591 61.6783 7.3591 63.6613V67.2656H1.41781C0.671982 67.2656 0.0675144 67.8777 0.0675144 68.6328C0.0675144 69.388 0.671982 70 1.41781 70H67.8486C68.5939 70 69.1989 69.388 69.1989 68.6328C69.1989 67.8777 68.5939 67.2656 67.848 67.2656ZM45.5207 20.0293C45.5207 22.4763 43.7231 24.5058 41.3949 24.8358V15.2228C43.7231 15.5528 45.5207 17.5822 45.5207 20.0293ZM35.9853 2.96829C37.5619 3.53279 38.6944 5.05699 38.6944 6.84448V26.4262C38.6944 27.0222 39.0752 27.5494 39.6364 27.7293C40.6264 28.0476 41.2921 28.9694 41.2921 30.0226V40.7684H33.3881V30.0226C33.3881 29.6322 33.4773 29.2605 33.6524 28.9176C35.1788 25.9381 35.9853 22.6243 35.9853 19.3334V2.96829ZM31.9666 17.9187C31.6528 17.5892 31.484 17.155 31.4924 16.6968C31.5003 16.2386 31.6844 15.8108 32.0104 15.4925C32.3285 15.1822 32.7451 15.0118 33.1856 15.0118C33.2046 15.0118 33.2236 15.0124 33.2425 15.0124C33.2568 15.0124 33.2705 15.0108 33.2847 15.0102V18.4458L33.156 18.4437C32.7035 18.4351 32.281 18.2487 31.9666 17.9187ZM20.4939 61.3194C20.1653 60.6417 19.3561 60.3619 18.6863 60.6951L12.7038 63.6703C12.6147 63.7147 12.5308 63.7691 12.4533 63.8322L10.0597 65.7799V63.6613C10.0597 62.6247 10.5771 61.6762 11.4443 61.124L29.1648 49.8436C29.3573 49.7213 29.5166 49.5509 29.6268 49.3501L32.8322 43.5027H40.1195L36.219 49.4308C34.5907 51.9051 32.3369 53.9056 29.7012 55.2162L26.9057 56.6069C26.2363 56.9396 25.9604 57.7589 26.2891 58.4366C26.6182 59.1143 27.4273 59.3941 28.0967 59.0609L30.8917 57.6707C33.9551 56.1471 36.574 53.8223 38.4665 50.9464L39.5267 49.3352L50.5685 53.4533V66.0918C50.5685 66.5009 50.6307 66.895 50.7462 67.2656H12.5445L14.0288 66.0576L19.8773 63.1491C20.5466 62.8164 20.8225 61.9971 20.4939 61.3194V61.3194ZM54.4284 67.2656C53.7892 67.2656 53.2691 66.739 53.2691 66.0918V52.5C53.2691 51.9275 52.9162 51.4148 52.3856 51.2172L41.0669 46.9955L42.5358 44.7626L43.2062 43.7441L53.5513 46.9944C55.1257 47.4895 56.1838 48.9432 56.1838 50.6126V63.1555C56.1838 63.3894 56.2429 63.6191 56.3552 63.8231L58.2578 67.2656H54.4284Z" fill="#7851A2"/>
</g>
<defs>
<clipPath id="clip0">
<rect width="69" height="70" fill="white"/>
</clipPath>
</defs>
</svg>
