<svg width="24" height="24" viewBox="0 0 24 24" fill="none" xmlns="http://www.w3.org/2000/svg">
<g clip-path="url(#clip0)">
<path d="M12.2437 21.8681C12.2428 21.8669 12.242 21.8656 12.2411 21.8643C12.232 21.8508 12.2208 21.8358 12.2074 21.8201C12.1959 21.8067 12.1836 21.7936 12.1702 21.781C12.1689 21.7798 12.1676 21.7786 12.1662 21.7773L12.1704 21.7812M12.2437 21.8681C12.2352 21.8553 12.2247 21.8409 12.2121 21.8257C12.1995 21.8105 12.1856 21.7956 12.1704 21.7812M12.2437 21.8681C12.2514 21.8797 12.2572 21.8896 12.2612 21.8965L12.2622 21.8984C12.2583 21.8914 12.252 21.8807 12.2437 21.8681ZM12.1704 21.7812C14.6521 24.0679 18.7029 24.0665 21.1828 21.7774C22.5069 20.5553 23.1381 19.4033 23.4485 18.134C23.7641 16.8435 23.7549 15.4151 23.7431 13.5892L23.7429 13.5513L23.7429 13.548C23.734 12.1717 23.7238 10.5966 23.8449 8.69702C23.863 8.3953 23.6999 7.91051 23.2949 7.56025L23.12 7.40904L23.122 7.17788C23.1311 6.08594 23.1645 5.1142 23.2261 4.14778L12.1704 21.7812ZM12.1663 21.7773L12.1663 21.7773L4.62605 14.8171L4.28693 15.1845L4.62604 14.8171C3.9475 14.1908 3.9474 13.1953 4.62604 12.5689L4.28693 12.2015L4.62605 12.5689C4.77252 12.4337 4.93938 12.3262 5.11912 12.2472L5.81779 11.9398L5.25693 11.4221L4.00726 10.2686C3.33082 9.64418 3.33079 8.64487 4.00726 8.02034L12.1663 21.7773ZM12.1663 21.7773L12.1702 21.781M12.1663 21.7773L12.1702 21.781M12.1702 21.781C12.1689 21.7798 12.1677 21.7786 12.1664 21.7774L12.1702 21.781ZM7.51852 8.2243L7.17944 8.59173L7.17957 8.59186L7.18013 8.59237L7.18233 8.5944L7.19103 8.60243L7.22501 8.63379L7.35418 8.75303L7.81715 9.18038L9.23914 10.493L11.4882 12.569C11.535 12.6123 11.5504 12.6593 11.5504 12.6988C11.5504 12.7383 11.535 12.7853 11.4882 12.8286L11.4881 12.8286C11.3823 12.9263 11.1952 12.9264 11.0892 12.8286L7.85764 9.84555L7.85761 9.84552C7.36909 9.39465 6.59064 9.39459 6.10221 9.84555L7.51852 8.2243ZM7.51852 8.2243L7.17939 8.59168C6.66722 8.11891 6.6672 7.33544 7.17933 6.86265C7.66782 6.41157 8.44619 6.4117 8.93471 6.86248L8.93477 6.86254L13.2436 10.8398C13.2436 10.8399 13.2436 10.8399 13.2436 10.8399C13.3497 10.9377 13.5367 10.9376 13.6425 10.8399L13.6425 10.8399C13.6894 10.7966 13.7048 10.7496 13.7048 10.7101C13.7048 10.6706 13.6894 10.6236 13.6425 10.5803L10.4117 7.59806M7.51852 8.2243L10.4112 7.59757M23.3219 8.67982L23.3199 8.64828C23.2858 8.10948 22.9097 7.73959 22.4968 7.59437C22.0843 7.44926 21.5684 7.50092 21.1828 7.85686C20.9924 8.03262 20.8855 8.20916 20.8451 8.42355C20.8335 8.48498 20.8275 8.55674 20.8247 8.59032C20.8241 8.59664 20.8237 8.60161 20.8234 8.6049C20.8201 8.63923 20.8166 8.66139 20.8097 8.68582L20.7994 8.72265L20.796 8.75157L20.1851 12.7392C20.1851 12.7392 20.1851 12.7393 20.1851 12.7393C20.1752 12.8035 20.1266 12.8718 20.0188 12.9051C19.9106 12.9385 19.8007 12.9156 19.7257 12.8464L19.7256 12.8463C19.4726 12.6128 19.3221 12.4738 19.189 12.3508C18.6303 11.8349 18.3781 11.602 12.1444 5.84988L12.1374 5.84342L12.1302 5.83723C11.6416 5.41971 10.8893 5.42669 10.411 5.86819L10.4109 5.86822C9.90044 6.33945 9.89875 7.11934 10.4059 7.59261C10.4077 7.5944 10.4097 7.59622 10.4117 7.59806M23.3219 8.67982L10.4114 7.59778L10.4112 7.59757M23.3219 8.67982L23.3199 8.71136M23.3219 8.67982L23.3199 8.71136M10.4117 7.59806L10.7503 7.23021L10.5609 7.43541L10.5608 7.43551L10.4112 7.59757M10.4117 7.59806L10.4112 7.5976L10.4112 7.59757M10.4112 7.59757L10.4109 7.59732C10.4105 7.59695 10.4101 7.59658 10.4097 7.59622C10.4102 7.59667 10.4107 7.59712 10.4112 7.59757ZM23.3199 8.71136C23.2006 10.6044 23.2105 12.1634 23.2195 13.5532L23.2198 13.6074C23.2312 15.3798 23.2404 16.7976 22.9433 18.0344C22.6343 19.3206 22.0015 20.394 20.7839 21.5179C18.5135 23.6137 14.8356 23.6136 12.5653 21.5179L5.02498 14.5576C4.51281 14.0848 4.51276 13.3012 5.02501 12.8285L5.02504 12.8285C5.51159 12.3795 6.28516 12.3778 6.77399 12.8226L6.7766 12.825L8.93482 14.8172C9.04078 14.915 9.22785 14.915 9.33372 14.8172L9.33375 14.8172M23.3199 8.71136L9.33375 14.8172M9.33375 14.8172C9.38062 14.7739 9.396 14.7269 9.396 14.6874C9.396 14.6479 9.38062 14.6009 9.33375 14.5577L6.10219 11.5747C6.10218 11.5747 6.10217 11.5747 6.10216 11.5746C5.59062 11.1025 5.59081 10.3177 6.10215 9.84561L9.33375 14.8172ZM6.43821 7.04755L6.1366 7.62906L5.65525 7.18474L5.48336 7.02607C4.97119 6.55329 4.97117 5.7698 5.48333 5.29701C5.97164 4.84619 6.7497 4.84612 7.23819 5.29642L7.23839 5.2966L7.41068 5.45559L7.9707 5.97238L7.27368 6.28036C7.09184 6.3607 6.92543 6.46913 6.78046 6.60295L6.78041 6.60299C6.6355 6.73672 6.52137 6.88722 6.43821 7.04755ZM4.40613 10.0091L4.4061 10.0091C3.89466 9.53688 3.89482 8.75205 4.40615 8.27997C4.89457 7.82904 5.67305 7.82907 6.16159 8.27996L6.16162 8.27999L6.33447 8.43954L6.89543 8.95736L6.19658 9.26462C6.01626 9.34391 5.84934 9.45109 5.70323 9.58596C5.55725 9.72071 5.44451 9.87158 5.36248 10.0306L5.06144 10.614L4.57904 10.1687L4.40613 10.0091ZM6.45854 3.96697L6.45829 3.96672L6.4579 3.96637L6.45706 3.96559L6.45585 3.96447C5.94616 3.49076 5.94851 2.70948 6.45899 2.23827C6.94743 1.7874 7.72557 1.78731 8.21428 2.23799C8.21432 2.23803 8.21436 2.23807 8.2144 2.23811L10.6366 4.46413L11.1983 4.98029L10.5009 5.28937C10.3221 5.36859 10.1568 5.47503 10.0121 5.60863C9.8671 5.74243 9.75296 5.89295 9.6698 6.05328L9.36944 6.63237L8.88832 6.19182L6.58826 4.08572L6.48142 3.9879L6.47049 3.97788L6.47022 3.97765L6.46994 3.97739L6.46974 3.97721L6.46942 3.97691L6.46939 3.97688L6.46929 3.97679L6.46894 3.97647L6.46889 3.97642L6.46819 3.97579L6.46276 3.97081L6.45945 3.96778L6.45933 3.96767L6.45905 3.96742L6.45898 3.96735L6.45892 3.9673L6.45888 3.96726L6.45854 3.96697ZM19.1068 8.29778L19.1068 8.29781C19.2001 8.38398 19.3653 8.39856 19.4798 8.31825L20.3243 7.72568L19.6788 7.45622L20.1731 7.53193L19.6789 7.45618L19.6789 7.45607L19.6789 7.45562L19.6792 7.45385L19.6803 7.44687L19.6845 7.41962L19.7003 7.31619L19.7569 6.94701L19.9285 5.82665L20.1784 4.19533L20.183 4.16591L20.191 4.13725C20.1978 4.11283 20.2013 4.09069 20.2046 4.05638C20.205 4.0531 20.2054 4.04814 20.2059 4.04182C20.2087 4.00826 20.2147 3.93649 20.2263 3.87507C20.2667 3.66066 20.3736 3.48413 20.564 3.30837L20.5641 3.30832C20.9497 2.9524 21.4656 2.90084 21.878 3.0459C22.2909 3.19108 22.6671 3.56092 22.7011 4.09982L22.7031 4.13131L22.7011 4.1628C22.6511 4.95656 22.6198 5.75475 22.6054 6.62241L22.5971 7.12301L22.0965 7.11401C21.4871 7.10306 20.9178 7.36794 20.5744 7.8301L20.4202 7.7657L20.2612 8.80325L19.8788 11.2989L19.7364 12.2284L19.0455 11.5906C15.8581 8.6481 14.1222 7.04559 13.1999 6.1944C12.8427 5.86482 12.6077 5.64798 12.4576 5.50963C12.4565 5.50883 12.4555 5.50812 12.4548 5.50754C12.4443 5.49966 12.4363 5.49297 12.4344 5.49145L12.4269 5.48503C12.4129 5.47297 12.3797 5.4428 12.3285 5.39595C12.1085 5.19488 11.4266 4.56799 9.64616 2.92782L9.63012 2.91305L9.61542 2.89693C9.18191 2.42138 9.20269 1.69431 9.69058 1.24395L9.69061 1.24392C10.1789 0.793247 10.9567 0.793012 11.4454 1.24332C11.4998 1.29335 16.8314 6.19703 19.1068 8.29778ZM12.4039 5.46347L12.4033 5.46285C12.4055 5.46504 12.4068 5.46635 12.407 5.46646C12.4071 5.46656 12.4062 5.46565 12.4039 5.46347Z" fill="black" stroke="#7851A2" stroke-width="0.999961"/>
</g>
<defs>
<clipPath id="clip0">
<rect width="24" height="24" fill="white" transform="matrix(-1 0 0 1 24 0)"/>
</clipPath>
</defs>
</svg>
