<svg width="24" height="24" viewBox="0 0 24 24" fill="none" xmlns="http://www.w3.org/2000/svg">
<path fill-rule="evenodd" clip-rule="evenodd" d="M21.2077 6.7531C22.2641 7.33997 22.2641 8.66003 21.2077 9.2469L19.8523 9.99992L21.2077 10.7529C22.2641 11.3398 22.2641 12.6599 21.2077 13.2467L19.8523 13.9998L21.2077 14.7528C22.2641 15.3397 22.2641 16.6597 21.2077 17.2466L13.1566 21.7194C12.484 22.0931 11.516 22.0931 10.8434 21.7194L2.79227 17.2466C1.73591 16.6597 1.73591 15.3397 2.79227 14.7528L4.14772 13.9998L2.79227 13.2467C1.73591 12.6599 1.73591 11.3398 2.79227 10.7529L4.1477 9.99992L2.79227 9.2469C1.73591 8.66003 1.73591 7.33997 2.79227 6.7531L10.8434 2.28024C11.516 1.90659 12.484 1.90659 13.1566 2.28024L21.2077 6.7531ZM13.1566 13.7198L17.7932 11.1439L19.3339 11.9998L17.7932 12.8558L17.793 12.8557L15.7339 13.9997L15.734 13.9998L12.1853 15.9713C12.1168 16.0093 11.8832 16.0093 11.8147 15.9713L8.26597 13.9998L8.2661 13.9997L6.20698 12.8557L6.20685 12.8558L4.6661 11.9998L6.20683 11.1439L10.8434 13.7198C11.516 14.0934 12.484 14.0934 13.1566 13.7198ZM6.20685 15.1437L4.6661 15.9997L11.8147 19.9711C11.8832 20.0092 12.1168 20.0092 12.1853 19.9711L19.3339 15.9997L17.7932 15.1437L13.1566 17.7196C12.484 18.0932 11.516 18.0932 10.8434 17.7196L6.20685 15.1437ZM11.816 4.02879C11.8845 3.99072 12.1181 3.99072 12.1866 4.02879L19.3352 8.00024L12.1866 11.9717C12.1181 12.0098 11.8845 12.0098 11.816 11.9717L4.66742 8.00024L11.816 4.02879Z" fill="#C7C7CC"/>
</svg>