<svg width="15" height="15" viewBox="0 0 15 15" fill="none" xmlns="http://www.w3.org/2000/svg">
<g clip-path="url(#clip0)">
<path d="M15.2153 5.45511C15.1404 6.63143 15.1467 7.60689 15.1522 8.46754C15.1669 10.7493 15.1899 12.236 13.4517 13.8405C11.7812 15.3825 9.06303 15.3826 7.39245 13.8405C7.39242 13.8405 7.39242 13.8405 7.39239 13.8404L2.67976 9.49031C2.12163 8.97514 2.12153 8.14118 2.67976 7.62593C2.79772 7.51704 2.9314 7.4312 3.07406 7.36845L2.29301 6.64748C1.73618 6.13349 1.73618 5.29715 2.29301 4.7831C2.42434 4.66187 2.57522 4.56962 2.73625 4.50555C2.4258 4.00641 2.49632 3.3525 2.96628 2.91872C3.09066 2.80391 3.23252 2.71494 3.38397 2.65142C3.03128 2.14651 3.08716 1.45827 3.57604 1.00703C4.04105 0.577785 4.74942 0.507329 5.29432 0.794544C5.36493 0.643847 5.4662 0.505161 5.59579 0.385576C6.15258 -0.128418 7.05867 -0.128447 7.6149 0.385019C7.64384 0.41162 10.1343 2.70217 11.729 4.17214L11.9739 2.57411C11.9932 1.86311 12.6226 1.28973 13.4015 1.28973C14.1813 1.28973 14.8106 1.86398 14.8293 2.57578C14.8296 2.58794 14.8294 2.60013 14.8286 2.61226C14.7905 3.20983 14.7698 3.81136 14.7641 4.48879C15.0854 4.76661 15.2333 5.16195 15.2153 5.45511ZM3.35299 8.86889L8.06569 13.2191C9.36494 14.4184 11.4791 14.4184 12.7784 13.2191C14.2221 11.8864 14.2147 10.7456 14.2001 8.47275C14.1945 7.60396 14.1882 6.62 14.2635 5.42494C14.2397 5.04887 13.7413 4.8728 13.4517 5.14016C13.2901 5.28924 13.352 5.3534 13.3075 5.51274C13.3074 5.51353 13.3073 5.51432 13.3071 5.51508L12.925 8.00938C12.8701 8.36737 12.3943 8.51464 12.117 8.25854C11.2953 7.49996 12.2031 8.33746 7.37877 3.88583C7.19232 3.72649 6.90046 3.72998 6.71921 3.89726C6.53314 4.06902 6.53314 4.34694 6.71921 4.51871C6.71928 4.51876 6.71931 4.51882 6.71937 4.51888L8.73896 6.38309C8.92487 6.5547 8.92487 6.83292 8.73896 7.00454C8.55311 7.17615 8.25167 7.17615 8.06572 7.00454C7.90767 6.85864 5.53012 4.66401 5.37271 4.51871C5.18705 4.34738 4.88507 4.34738 4.6995 4.51873C4.51343 4.6905 4.51343 4.96842 4.6995 5.14019C4.6995 5.14019 7.23475 7.48042 7.39248 7.62602C7.5784 7.79763 7.5784 8.07585 7.39248 8.24747C7.2066 8.41908 6.90516 8.41908 6.71925 8.24747L4.6995 6.38309C4.51384 6.21174 4.2118 6.21176 4.02626 6.38309C3.84063 6.55444 3.8406 6.83321 4.02623 7.00454C4.36233 7.31478 5.89935 8.73357 6.04598 8.86892C6.23189 9.04053 6.23189 9.31875 6.04598 9.49037C5.86009 9.66198 5.55865 9.66198 5.37274 9.49037L4.02385 8.24524C3.838 8.07611 3.53783 8.07688 3.35299 8.24744C3.16692 8.41917 3.16692 8.69713 3.35299 8.86889ZM3.63948 3.54023C3.45341 3.71199 3.45341 3.98992 3.63948 4.16168L3.74691 4.26084C3.81601 4.12764 3.90976 4.00474 4.02626 3.89723C4.14274 3.78971 4.27584 3.70317 4.42018 3.63939L4.3125 3.54002C4.12687 3.36891 3.82499 3.36897 3.63948 3.54023ZM2.96622 6.02606L3.07428 6.12581C3.14226 5.99407 3.23496 5.87056 3.35299 5.76161C3.47099 5.65268 3.6048 5.56708 3.74752 5.50433L3.63948 5.40461C3.45382 5.23326 3.15178 5.23329 2.96625 5.40458C2.78065 5.57593 2.78062 5.85471 2.96622 6.02606ZM4.24925 1.62854C4.06375 1.79977 4.06301 2.07691 4.24807 2.2489C4.30875 2.30448 3.89732 1.9277 5.76666 3.63942C5.83575 3.50622 5.9295 3.38332 6.04601 3.27578C6.16299 3.16779 6.29552 3.0828 6.43685 3.02017C6.35202 2.94221 4.97542 1.67714 4.92255 1.62851C4.73679 1.45716 4.43485 1.45721 4.24925 1.62854ZM11.7302 5.41571C10.3083 4.103 6.97635 1.03843 6.94226 1.00708C6.75657 0.835734 6.45462 0.835763 6.26899 1.00708C6.09139 1.17102 6.08482 1.42874 6.241 1.60006C10.6929 5.70129 4.14744 -0.341632 12.1158 7.0145L12.3548 5.4547C12.1641 5.5885 11.8977 5.57039 11.7302 5.41571ZM13.8768 2.58208C13.853 2.2061 13.3545 2.03003 13.0649 2.29733C12.9034 2.44644 12.9653 2.51054 12.9208 2.66988C12.9206 2.6707 12.6086 4.70746 12.6086 4.70746C12.8885 4.33071 13.3436 4.12532 13.8163 4.13382C13.8254 3.58704 13.8452 3.08333 13.8768 2.58208Z" fill="white"/>
</g>
<defs>
<clipPath id="clip0">
<rect width="15" height="15" fill="white" transform="matrix(-1 0 0 1 15 0)"/>
</clipPath>
</defs>
</svg>