<svg width="23" height="33" viewBox="0 0 23 33" fill="none" xmlns="http://www.w3.org/2000/svg">
<path d="M11.3516 5.91992C11.9449 5.91992 12.5249 5.74398 13.0183 5.41433C13.5116 5.08469 13.8961 4.61615 14.1232 4.06797C14.3503 3.5198 14.4097 2.9166 14.2939 2.33465C14.1782 1.75271 13.8924 1.21816 13.4729 0.798603C13.0533 0.379045 12.5188 0.0933231 11.9368 -0.0224326C11.3549 -0.138188 10.7517 -0.0787783 10.2035 0.148285C9.65533 0.375348 9.1868 0.759865 8.85715 1.25321C8.52751 1.74656 8.35156 2.32658 8.35156 2.91992C8.35156 3.71557 8.66763 4.47863 9.23024 5.04124C9.79285 5.60385 10.5559 5.91992 11.3516 5.91992Z" fill="url(#paint0_linear)"/>
<path d="M14.31 19.7695V16.9995C16.6558 15.7854 18.6557 13.9966 20.1229 11.8002C21.5901 9.6038 22.4767 7.07138 22.7 4.43945H16.75C16.4878 6.38454 15.6363 8.2027 14.31 9.64945H8.39C6.04938 10.8623 4.05308 12.6468 2.58634 14.8373C1.1196 17.0278 0.229971 19.5533 0 22.1795H5C2.11692 24.81 0.331535 28.4308 0 32.3195H6C6.22041 30.7327 6.82842 29.2246 7.77027 27.9287C8.71211 26.6328 9.95877 25.589 11.4 24.8895C12.8412 25.589 14.0879 26.6328 15.0297 27.9287C15.9716 29.2246 16.5796 30.7327 16.8 32.3195H22.7C22.4751 29.6893 21.5877 27.1589 20.1206 24.9644C18.6535 22.7698 16.6545 20.9826 14.31 19.7695ZM8.39 18.0495V19.7695C7.60045 20.1808 6.84768 20.6593 6.14 21.1995C6.52675 19.6332 7.30038 18.1891 8.39 16.9995V18.0495Z" fill="url(#paint1_linear)"/>
<defs>
<linearGradient id="paint0_linear" x1="7.27156" y1="2.95992" x2="42.9316" y2="2.95992" gradientUnits="userSpaceOnUse">
<stop stop-color="#7852A1"/>
<stop offset="1" stop-color="#EF518B"/>
</linearGradient>
<linearGradient id="paint1_linear" x1="-97.837" y1="516.874" x2="3007.98" y2="516.874" gradientUnits="userSpaceOnUse">
<stop stop-color="#7852A1"/>
<stop offset="1" stop-color="#EF518B"/>
</linearGradient>
</defs>
</svg>