<svg width="20" height="20" viewBox="0 0 20 20" fill="none" xmlns="http://www.w3.org/2000/svg">
<path fill-rule="evenodd" clip-rule="evenodd" d="M13.3346 1.66602H6.66797C3.90655 1.66602 1.66797 3.90459 1.66797 6.66602V13.3327C1.66797 16.0941 3.90655 18.3327 6.66797 18.3327H13.3346C16.0961 18.3327 18.3346 16.0941 18.3346 13.3327V6.66602C18.3346 3.90459 16.0961 1.66602 13.3346 1.66602ZM3.33509 6.66624C3.33509 4.82529 4.82747 3.3329 6.66842 3.3329H13.3351C15.176 3.3329 16.6684 4.82529 16.6684 6.66624V13.3329C16.6684 15.1739 15.176 16.6662 13.3351 16.6662H6.66842C4.82747 16.6662 3.33509 15.1739 3.33509 13.3329V6.66624ZM10.0018 14.1662C7.70056 14.1662 5.83508 12.3008 5.83508 9.99956C5.83508 7.69838 7.70056 5.8329 10.0018 5.8329C12.3029 5.8329 14.1684 7.69838 14.1684 9.99956C14.1684 12.3008 12.3029 14.1662 10.0018 14.1662ZM10.0009 12.4991C11.3816 12.4991 12.5009 11.3798 12.5009 9.99912C12.5009 8.61841 11.3816 7.49912 10.0009 7.49912C8.62014 7.49912 7.50085 8.61841 7.50085 9.99912C7.50085 11.3798 8.62014 12.4991 10.0009 12.4991ZM15.0018 5.83246C15.0018 6.2927 14.6287 6.66579 14.1684 6.66579C13.7082 6.66579 13.3351 6.2927 13.3351 5.83246C13.3351 5.37222 13.7082 4.99913 14.1684 4.99913C14.6287 4.99913 15.0018 5.37222 15.0018 5.83246Z" fill="#8C8C8C"/>
</svg>