<svg viewBox="0 0 16 22" fill="none" xmlns="http://www.w3.org/2000/svg">
<path fill-rule="evenodd" clip-rule="evenodd" d="M16 0V8H16L16 9.00002L16 10L16 11.9942C16.0087 13.5165 15.1594 13.9983 12.7914 14.7079C11.4034 15.1238 11 15.3523 11 15.5C11 16.2676 11.0703 16.783 11.2201 17.3825C11.1912 17.2665 11.362 17.927 11.3997 18.103C11.466 18.4125 11.5 18.6942 11.5 19C11.5 20.6609 9.93768 22 8 22C6.06232 22 4.5 20.6609 4.5 19C4.5 18.6942 4.534 18.4125 4.60032 18.103C4.63803 17.927 4.80884 17.2665 4.77986 17.3825C4.92971 16.783 5 16.2676 5 15.5C5 15.3513 4.59771 15.1233 3.21265 14.7078C0.847712 13.9983 0 13.518 0 12V10V8V0H16ZM8.92643 10H14L14 12C14.0008 12.1505 13.6005 12.3776 12.2173 12.7921L12.213 12.7934C9.8493 13.5017 9 13.9827 9 15.5C9 16.4407 9.09221 17.117 9.27986 17.8675C9.26196 17.796 9.41668 18.3942 9.44407 18.522C9.4826 18.7018 9.5 18.846 9.5 19C9.5 19.482 8.89566 20 8 20C7.10434 20 6.5 19.482 6.5 19C6.5 18.846 6.5174 18.7018 6.55593 18.522C6.58332 18.3942 6.73804 17.796 6.72014 17.8675C6.90779 17.117 7 16.4407 7 15.5C7 13.982 6.15229 13.5017 3.78735 12.7922C2.40229 12.3767 2 12.1487 2 12V10H8.92643ZM2 8V2H4V6H6V2H8V5H10V2H14V8H2Z" fill="#7851A2"/>
</svg>
