<svg width="27" height="21" viewBox="0 0 27 21" fill="none" xmlns="http://www.w3.org/2000/svg">
<path fill-rule="evenodd" clip-rule="evenodd" d="M6.39543 6.42857C6.39543 3.38282 8.53849 1 11.824 1C15.1004 1 17.2526 3.60786 17.2526 6.7C17.2526 11.1357 14.8508 13.2001 11.8549 13.2142C18.1406 13.2188 22.2425 14.6379 22.648 18.0669C21.9684 18.7822 21.2185 19.4302 20.4095 19.9999H19.9669V18.6428C19.9669 17.017 17.0569 15.9285 11.824 15.9285C6.59115 15.9285 3.68117 17.017 3.68117 18.6428V19.9999H3.23852C2.42953 19.4302 1.67968 18.7822 1 18.0669C1.40551 14.6378 5.50748 13.2188 11.7933 13.2142C8.7691 13.1999 6.39543 11.0643 6.39543 6.42857ZM9.1096 6.42849C9.1096 9.50819 10.22 10.4999 11.8239 10.4999C13.4222 10.4999 14.5382 9.54774 14.5382 6.69992C14.5382 5.00406 13.4737 3.7142 11.8239 3.7142C10.1054 3.7142 9.1096 4.82139 9.1096 6.42849Z" fill="black"/>
<path d="M11.8549 13.2142L11.8525 12.7142L11.8545 13.7142L11.8549 13.2142ZM22.648 18.0669L23.0105 18.4113L23.1721 18.2412L23.1446 18.0081L22.648 18.0669ZM20.4095 19.9999V20.4999H20.5679L20.6974 20.4087L20.4095 19.9999ZM19.9669 19.9999H19.4669V20.4999H19.9669V19.9999ZM3.68117 19.9999V20.4999H4.18117V19.9999H3.68117ZM3.23852 19.9999L2.95064 20.4087L3.08014 20.4999H3.23852V19.9999ZM1 18.0669L0.50346 18.0081L0.475903 18.2412L0.637528 18.4113L1 18.0669ZM11.7933 13.2142L11.7937 13.7142L11.7957 12.7142L11.7933 13.2142ZM11.824 0.5C8.24777 0.5 5.89543 3.12148 5.89543 6.42857H6.89543C6.89543 3.64415 8.82921 1.5 11.824 1.5V0.5ZM17.7526 6.7C17.7526 3.3758 15.4187 0.5 11.824 0.5V1.5C14.7821 1.5 16.7526 3.83991 16.7526 6.7H17.7526ZM11.8572 13.7142C13.4726 13.7066 14.9638 13.1431 16.0471 11.9516C17.1273 10.7635 17.7526 9.00599 17.7526 6.7H16.7526C16.7526 8.82968 16.177 10.3222 15.3072 11.2788C14.4407 12.2319 13.233 12.7077 11.8525 12.7142L11.8572 13.7142ZM11.8545 13.7142C14.9723 13.7165 17.4912 14.0714 19.2625 14.8172C21.0154 15.5553 21.9762 16.6436 22.1515 18.1256L23.1446 18.0081C22.9143 16.0611 21.6215 14.7254 19.6506 13.8956C17.6982 13.0735 15.0232 12.7165 11.8553 12.7142L11.8545 13.7142ZM22.2856 17.7225C21.6285 18.414 20.9036 19.0404 20.1216 19.5911L20.6974 20.4087C21.5334 19.82 22.3082 19.1504 23.0105 18.4113L22.2856 17.7225ZM20.4095 19.4999H19.9669V20.4999H20.4095V19.4999ZM20.4669 19.9999V18.6428H19.4669V19.9999H20.4669ZM20.4669 18.6428C20.4669 17.4763 19.4279 16.6874 18.0205 16.2032C16.564 15.7021 14.4656 15.4285 11.824 15.4285V16.4285C14.4154 16.4285 16.3884 16.6992 17.6951 17.1488C19.0509 17.6153 19.4669 18.1835 19.4669 18.6428H20.4669ZM11.824 15.4285C9.18249 15.4285 7.08404 15.7021 5.6276 16.2032C4.22018 16.6874 3.18117 17.4763 3.18117 18.6428H4.18117C4.18117 18.1835 4.59714 17.6153 5.95294 17.1488C7.2597 16.6992 9.23268 16.4285 11.824 16.4285V15.4285ZM3.18117 18.6428V19.9999H4.18117V18.6428H3.18117ZM3.68117 19.4999H3.23852V20.4999H3.68117V19.4999ZM3.52641 19.5911C2.74442 19.0404 2.01954 18.414 1.36247 17.7225L0.637528 18.4113C1.33982 19.1504 2.11464 19.82 2.95064 20.4087L3.52641 19.5911ZM1.49654 18.1256C1.6718 16.6436 2.63269 15.5552 4.38556 14.8172C6.15697 14.0713 8.67584 13.7165 11.7937 13.7142L11.7929 12.7142C8.62495 12.7165 5.94992 13.0735 3.99751 13.8956C2.02656 14.7254 0.733711 16.0611 0.50346 18.0081L1.49654 18.1256ZM5.89543 6.42857C5.89543 8.8278 6.51001 10.6508 7.58328 11.8829C8.66238 13.1216 10.1566 13.7065 11.7909 13.7142L11.7957 12.7142C10.4058 12.7076 9.20109 12.2176 8.3373 11.226C7.46768 10.2277 6.89543 8.66511 6.89543 6.42857H5.89543ZM11.8239 9.99992C11.1335 9.99992 10.6236 9.79334 10.2643 9.31771C9.88243 8.81224 9.6096 7.92482 9.6096 6.42849H8.6096C8.6096 8.01186 8.89199 9.16015 9.46634 9.92047C10.0632 10.7106 10.9105 10.9999 11.8239 10.9999V9.99992ZM14.0382 6.69992C14.0382 8.073 13.7666 8.88815 13.3911 9.35408C13.0335 9.79778 12.5193 9.99992 11.8239 9.99992V10.9999C12.7268 10.9999 13.5697 10.726 14.1697 9.98162C14.7517 9.2595 15.0382 8.17465 15.0382 6.69992H14.0382ZM11.8239 4.2142C12.5094 4.2142 13.0502 4.4781 13.4251 4.90223C13.8049 5.33199 14.0382 5.95496 14.0382 6.69992H15.0382C15.0382 5.74901 14.7392 4.87912 14.1744 4.24C13.6045 3.59523 12.7881 3.2142 11.8239 3.2142V4.2142ZM9.6096 6.42849C9.6096 5.72812 9.82502 5.1837 10.1811 4.81697C10.5348 4.45263 11.0752 4.2142 11.8239 4.2142V3.2142C10.8541 3.2142 10.0374 3.52937 9.46356 4.1204C8.89208 4.70904 8.6096 5.52177 8.6096 6.42849H9.6096Z" fill="white"/>
<path fill-rule="evenodd" clip-rule="evenodd" d="M23.3 3.7H26V4.3H23.3V7H22.7V4.3H20V3.7H22.7V1H23.3V3.7Z" fill="black" stroke="black"/>
</svg>
