<svg xmlns="http://www.w3.org/2000/svg" width="68" height="69" fill="none" viewBox="0 0 68 69">
  <path fill="#fff" d="M68 64.49c0 .538-.299 1.032-.897 1.48-.597.45-1.516.82-2.755 1.112-1.24.291-2.513.56-3.819.807s-2.977.438-5.013.573a253.97 253.97 0 01-5.313.302c-1.505.068-3.442.124-5.81.169-2.369.045-4.162.067-5.38.067H28.987l-5.379-.067-5.81-.169-5.313-.302-5.013-.573-3.819-.807L.896 65.97 0 64.49c.089-3.95 2.523-7.439 7.305-10.468 4.78-3.03 10.846-5.038 18.195-6.025v-2.221a17.547 17.547 0 01-5.977-4.376c-1.682-1.885-3.01-4.095-3.984-6.63-.974-2.536-1.682-5.252-2.125-8.146-.443-2.895-.664-6.025-.664-9.39 0-2.873.553-5.431 1.66-7.675 1.107-2.244 2.634-4.05 4.582-5.419 1.948-1.369 4.184-2.401 6.707-3.097C28.223.348 30.99 0 34 0c3.01 0 5.777.348 8.3 1.043 2.524.696 4.76 1.728 6.708 3.097 1.948 1.369 3.475 3.175 4.582 5.419 1.107 2.244 1.66 4.802 1.66 7.674C55.25 32.94 51 42.5 42.5 45.91v2.087c7.349.987 13.414 2.996 18.195 6.025 4.782 3.03 7.217 6.519 7.305 10.468z"/>
</svg>
