<svg xmlns="http://www.w3.org/2000/svg" viewBox="0 0 28.67 32.32"><defs><style>.cls-1{fill:#ef518b;}</style></defs><title>Asset 25</title><g id="Layer_2" data-name="Layer 2"><g id="Layer_1-2" data-name="Layer 1"><path class="cls-1" d="M0,9.62v7.17A15.64,15.64,0,0,0,14.33,32.32,15.65,15.65,0,0,0,28.67,16.79V9.62H0Zm21.75,5.92h1v1.25a9.76,9.76,0,0,1-8.42,9.59,9.75,9.75,0,0,1-8.41-9.59V15.54H21.75Z"/><path class="cls-1" d="M3,5.92A3,3,0,1,0,0,3,3,3,0,0,0,3,5.92Z"/><path class="cls-1" d="M25.71,5.92a3,3,0,1,0-3-3A3,3,0,0,0,25.71,5.92Z"/></g></g></svg>