<svg xmlns="http://www.w3.org/2000/svg" 
xmlns:xlink="http://www.w3.org/1999/xlink" 
viewBox="0 0 83.17 36.36"
>
<defs>
<linearGradient id="linear-gradient" x1="-2.72" y1="20.97" x2="83.67" y2="20.97" gradientUnits="userSpaceOnUse">
<stop offset="0" stop-color="#7852a1"/><stop offset="1" stop-color="#ef518b"/>
</linearGradient>
<linearGradient id="linear-gradient-2" x1="-2.72" y1="21" x2="83.67" y2="21" xlink:href="#linear-gradient"/>
<linearGradient id="linear-gradient-3" x1="-2.72" y1="2.96" x2="83.67" y2="2.96" xlink:href="#linear-gradient"/>
<linearGradient id="linear-gradient-5" x1="-2.72" y1="22.99" x2="83.67" y2="22.99" xlink:href="#linear-gradient"/>
</defs><title>Asset 5</title>
<g id="Layer_2" data-name="Layer 2">
<g id="Layer_2-2" data-name="Layer 2">
<path fill='url(#linear-gradient)' class="cls-1" d="M0,16.79A15.64,15.64,0,0,0,14.33,32.32V26.38a9.75,9.75,0,0,1-8.41-9.59V15.54h8.41V9.62H0Z"/>
<path fill='url(#linear-gradient-2)' class="cls-2" d="M40.83,9.62H33.67V32.37h5.91V15.54h1.25a9.68,9.68,0,0,1,9.67,9.67v7.16h5.91V25.21A15.6,15.6,0,0,0,40.83,9.62Z"/>
<path fill='url(#linear-gradient-3)' class="cls-3" d="M5.92,3a3,3,0,1,0-3,3A3,3,0,0,0,5.92,3Z"/>
<rect fill='url(#linear-gradient-2)' class="cls-2" x="21.04" y="9.62" width="5.92" height="22.75"/>
<path fill='url(#linear-gradient-5)' class="cls-4" d="M77.25,33.62v2.74a7.24,7.24,0,0,0,5.92-7.06V9.62H77.25V26.46H76a9.68,9.68,0,0,1-9.67-9.67V9.62H60.42v7.17A15.6,15.6,0,0,0,76,32.37h1.25v1.25Z"/></g></g></svg>