<svg xmlns="http://www.w3.org/2000/svg" xmlns:xlink="http://www.w3.org/1999/xlink" viewBox="0 0 119.95 36.36"><defs><style>.cls-1{fill:url(#linear-gradient);}.cls-2{fill:url(#linear-gradient-2);}.cls-3{fill:url(#linear-gradient-3);}.cls-4{fill:url(#linear-gradient-5);}.cls-5{fill:#ef518b;}</style><linearGradient id="linear-gradient" x1="-2.72" y1="20.97" x2="83.67" y2="20.97" gradientUnits="userSpaceOnUse"><stop offset="0" stop-color="#7852a1"/><stop offset="1" stop-color="#ef518b"/></linearGradient><linearGradient id="linear-gradient-2" x1="-2.72" y1="21" x2="83.67" y2="21" xlink:href="#linear-gradient"/><linearGradient id="linear-gradient-3" x1="-2.72" y1="2.96" x2="83.67" y2="2.96" xlink:href="#linear-gradient"/><linearGradient id="linear-gradient-5" x1="-2.72" y1="22.99" x2="83.67" y2="22.99" xlink:href="#linear-gradient"/></defs><title>Asset 18</title><g id="Layer_2" data-name="Layer 2"><g id="Layer_1-2" data-name="Layer 1"><path class="cls-1" d="M0,16.79A15.64,15.64,0,0,0,14.33,32.32V26.38a9.75,9.75,0,0,1-8.41-9.59V15.54h8.41V9.62H0Z"/><path class="cls-2" d="M40.83,9.62H33.67V32.37h5.91V15.54h1.25a9.68,9.68,0,0,1,9.67,9.67v7.16h5.91V25.21A15.6,15.6,0,0,0,40.83,9.62Z"/><path class="cls-3" d="M5.92,3a3,3,0,1,0-3,3A3,3,0,0,0,5.92,3Z"/><rect class="cls-2" x="21.04" y="9.62" width="5.92" height="22.75"/><path class="cls-4" d="M77.25,33.62v2.74a7.24,7.24,0,0,0,5.92-7.06V9.62H77.25V26.46H76a9.68,9.68,0,0,1-9.67-9.67V9.62H60.42v7.17A15.6,15.6,0,0,0,76,32.37h1.25v1.25Z"/><path class="cls-5" d="M113.65,22.23H96.91a6.31,6.31,0,0,1,0-12.61h16.74a6.31,6.31,0,0,1,0,12.61Zm-16.74-12a5.66,5.66,0,0,0,0,11.31h16.74a5.66,5.66,0,1,0,0-11.31Z"/><path class="cls-5" d="M98.9,18.85a3.62,3.62,0,0,1-.8-.08,4.8,4.8,0,0,1-.71-.19v-.07a2.77,2.77,0,0,0,0-.38c0-.16,0-.32,0-.48V13.92c0-.11,0-.23,0-.36s0-.25,0-.36,0-.2,0-.26v-.07h.76v4.74a2.36,2.36,0,0,1,0,.4,2,2,0,0,1,0,.29L98,18.08a3.16,3.16,0,0,0,.42.11,2.78,2.78,0,0,0,.51,0,1.37,1.37,0,0,0,1.1-.41,1.81,1.81,0,0,0,.35-1.2,1.6,1.6,0,0,0-.37-1.13,1.34,1.34,0,0,0-1.08-.42l-.35,0-.3.06-.35.11v-.59A2.7,2.7,0,0,1,99,14.45a2.29,2.29,0,0,1,1.14.27,1.71,1.71,0,0,1,.73.75,2.44,2.44,0,0,1,.25,1.15,2.59,2.59,0,0,1-.26,1.2,1.92,1.92,0,0,1-.75.77A2.52,2.52,0,0,1,98.9,18.85Z"/><path class="cls-5" d="M104.24,18.82a3.56,3.56,0,0,1-1-.14,2,2,0,0,1-.72-.42,1.65,1.65,0,0,1-.43-.69,2.67,2.67,0,0,1-.14-.93,2.6,2.6,0,0,1,.24-1.15,1.89,1.89,0,0,1,.68-.77,1.93,1.93,0,0,1,1-.27,2,2,0,0,1,1.1.28,1.56,1.56,0,0,1,.6.78,3.31,3.31,0,0,1,.16,1.18v.21h-3.31v-.59H105v-.06a1.27,1.27,0,0,0-.27-.88,1.1,1.1,0,0,0-.84-.3,1.4,1.4,0,0,0-.61.14,1,1,0,0,0-.44.48,1.9,1.9,0,0,0-.17.9v.05a1.9,1.9,0,0,0,.2.94,1.24,1.24,0,0,0,.58.48,2.25,2.25,0,0,0,.84.14,2.68,2.68,0,0,0,.68-.07,2.91,2.91,0,0,0,.44-.17h.06v.63a2,2,0,0,1-.49.16A3,3,0,0,1,104.24,18.82Z"/><path class="cls-5" d="M106.29,15.17v-.62h2.58v.62Zm2.14,3.65a2,2,0,0,1-.87-.17,1.11,1.11,0,0,1-.47-.49,1.67,1.67,0,0,1-.15-.73v-4h.72v4a.91.91,0,0,0,.19.64.83.83,0,0,0,.61.19,1.66,1.66,0,0,0,.32,0,1.07,1.07,0,0,0,.27-.09h.06v.6a1.21,1.21,0,0,1-.29.1A1.61,1.61,0,0,1,108.43,18.82Z"/><path class="cls-5" d="M111.52,18.85a2.29,2.29,0,0,1-1.36-.33,1.13,1.13,0,0,1-.46-1,1.23,1.23,0,0,1,.22-.74,1.27,1.27,0,0,1,.63-.44,2.78,2.78,0,0,1,1-.15,3,3,0,0,1,.72.07l.5.15V17a3.7,3.7,0,0,0-.52-.12,3.09,3.09,0,0,0-.58-.06,2,2,0,0,0-.93.16.59.59,0,0,0-.31.58.62.62,0,0,0,.29.57,1.67,1.67,0,0,0,.86.18,3.81,3.81,0,0,0,.59-.05,4.26,4.26,0,0,0,.54-.14l-.14.21,0-.14s0-.11,0-.16,0-.12,0-.18V16.22a1.56,1.56,0,0,0-.14-.74.69.69,0,0,0-.4-.33,2.51,2.51,0,0,0-.67-.08,2.7,2.7,0,0,0-.62.08,2.62,2.62,0,0,0-.5.17h-.06v-.63a2.81,2.81,0,0,1,.62-.18,3.83,3.83,0,0,1,.65-.06,4,4,0,0,1,.72.07,1.46,1.46,0,0,1,.58.26,1.11,1.11,0,0,1,.39.52,2.44,2.44,0,0,1,.14.89v1.42c0,.17,0,.33,0,.49a2.77,2.77,0,0,0,0,.38l0,.06a3.71,3.71,0,0,1-.56.17l-.62.11Z"/></g></g></svg>