<svg xmlns="http://www.w3.org/2000/svg" viewBox="0 0 28.67 32.32"><defs><style>.cls-1{fill:#ef518b;}</style></defs><title>Asset 26</title><g id="Layer_2" data-name="Layer 2"><g id="Layer_1-2" data-name="Layer 1"><path class="cls-1" d="M5.92,16.79V15.54h8.41V9.62H0v7.17A15.64,15.64,0,0,0,14.33,32.32V26.38A9.75,9.75,0,0,1,5.92,16.79Z"/><path class="cls-1" d="M3,5.92A3,3,0,1,0,0,3,3,3,0,0,0,3,5.92Z"/><path class="cls-1" d="M14.33,0V6a9.74,9.74,0,0,1,8.42,9.58v1.25H14.33V22.7H28.67V15.53A15.66,15.66,0,0,0,14.33,0Z"/><path class="cls-1" d="M25.71,26.41a3,3,0,1,0,3,3A3,3,0,0,0,25.71,26.41Z"/></g></g></svg>