<?xml version="1.0" standalone="no"?>
<!DOCTYPE svg PUBLIC "-//W3C//DTD SVG 20010904//EN"
 "http://www.w3.org/TR/2001/REC-SVG-20010904/DTD/svg10.dtd">
<svg version="1.0" xmlns="http://www.w3.org/2000/svg"
 width="253.000000pt" height="360.000000pt" viewBox="0 0 253.000000 360.000000"
 preserveAspectRatio="xMidYMid meet">

<g transform="translate(0.000000,360.000000) scale(0.100000,-0.100000)"
fill="#000000" stroke="none">
<path d="M1187 3590 c-86 -22 -172 -92 -215 -175 -36 -72 -42 -179 -12 -257
90 -239 415 -285 564 -81 101 139 82 323 -45 437 -74 67 -198 99 -292 76z"/>
<path d="M0 2205 l0 -325 471 0 472 0 -6 -142 c-11 -269 -77 -463 -224 -655
-158 -208 -427 -372 -666 -408 l-47 -7 0 -329 0 -330 53 7 c401 48 775 235
1052 525 44 47 96 105 115 131 19 26 38 48 41 48 4 0 32 -30 62 -68 227 -276
533 -481 863 -577 79 -23 292 -65 330 -65 12 0 14 53 14 328 l0 327 -86 18
c-391 81 -717 395 -820 792 -20 78 -27 133 -31 253 l-6 152 472 0 471 0 0 325
0 325 -1265 0 -1265 0 0 -325z"/>
</g>
</svg>
